<?xml version="1.0" standalone="no"?>
<!DOCTYPE svg PUBLIC "-//W3C//DTD SVG 20010904//EN"
 "http://www.w3.org/TR/2001/REC-SVG-20010904/DTD/svg10.dtd">
<svg version="1.0" xmlns="http://www.w3.org/2000/svg"
 width="218.000000pt" height="369.000000pt" viewBox="0 0 218.000000 369.000000"
 preserveAspectRatio="xMidYMid meet">

<g transform="translate(0.000000,369.000000) scale(0.100000,-0.100000)"
fill="#FF3131" stroke="none">
<path d="M1686 3518 c-23 -24 -48 -54 -57 -67 l-15 -23 -34 21 c-48 29 -115
28 -158 -1 -21 -15 -131 -173 -317 -453 -331 -502 -426 -642 -632 -937 -87
-125 -156 -234 -163 -256 -35 -132 87 -268 225 -248 22 3 141 32 265 65 123
33 226 58 228 56 3 -2 -26 -50 -64 -105 -240 -353 -455 -697 -620 -995 l-89
-160 0 -86 c0 -82 1 -87 35 -132 96 -127 289 -113 379 27 l26 41 40 -13 c50
-17 120 -10 173 17 56 28 103 88 161 201 28 54 112 205 187 336 138 242 163
285 271 474 33 58 111 195 175 305 63 110 139 243 168 295 29 52 64 115 78
140 92 165 112 211 112 266 0 62 -17 103 -63 152 -38 40 -119 66 -174 57 -50
-9 -329 -90 -377 -110 -21 -9 -42 -15 -46 -13 -21 8 256 622 438 972 67 129
37 216 -75 216 -29 0 -44 -8 -77 -42z"/>
</g>
</svg>
